<svg xmlns="http://www.w3.org/2000/svg" xmlns:xlink="http://www.w3.org/1999/xlink" xmlns:inkscape="http://www.inkscape.org/namespaces/inkscape" version="1.1" width="595.32" height="841.92" viewBox="0 0 595.32 841.92">
<defs>
<clipPath id="clip_1">
<path transform="matrix(1,0,0,-1,0,841.92)" d="M.000008871 0H595.32V841.92H.000008871Z" clip-rule="evenodd"/>
</clipPath>
<clipPath id="clip_2">
<path transform="matrix(1,0,0,-1,0,841.92)" d="M.000008871 0H595.32V841.92H.000008871Z" clip-rule="evenodd"/>
</clipPath>
<clipPath id="clip_3">
<path transform="matrix(1,0,0,-1,0,841.92)" d="M.000008871 0H595.32V841.92H.000008871Z" clip-rule="evenodd"/>
</clipPath>
<clipPath id="clip_4">
<path transform="matrix(1,0,0,-1,0,841.92)" d="M.000008871 0H595.32V841.92H.000008871Z" clip-rule="evenodd"/>
</clipPath>
<clipPath id="clip_5">
<path transform="matrix(1,0,0,-1,0,841.92)" d="M.000008871 0H595.32V841.92H.000008871Z" clip-rule="evenodd"/>
</clipPath>
<clipPath id="clip_6">
<path transform="matrix(1,0,0,-1,0,841.92)" d="M.000008871 0H595.32V841.92H.000008871Z" clip-rule="evenodd"/>
</clipPath>
<clipPath id="clip_7">
<path transform="matrix(1,0,0,-1,0,841.92)" d="M.000008871 0H595.32V841.92H.000008871Z" clip-rule="evenodd"/>
</clipPath>
<clipPath id="clip_8">
<path transform="matrix(1,0,0,-1,0,841.92)" d="M.000008871 0H595.32V841.92H.000008871Z" clip-rule="evenodd"/>
</clipPath>
<clipPath id="clip_9">
<path transform="matrix(1,0,0,-1,0,841.92)" d="M.000008871 0H595.32V841.92H.000008871Z" clip-rule="evenodd"/>
</clipPath>
<clipPath id="clip_10">
<path transform="matrix(1,0,0,-1,0,841.92)" d="M.000008871 0H595.32V841.92H.000008871Z" clip-rule="evenodd"/>
</clipPath>
<clipPath id="clip_11">
<path transform="matrix(1,0,0,-1,0,841.92)" d="M.000008871 0H595.32V841.92H.000008871Z" clip-rule="evenodd"/>
</clipPath>
<clipPath id="clip_12">
<path transform="matrix(1,0,0,-1,0,841.92)" d="M.000008871 0H595.32V841.92H.000008871Z" clip-rule="evenodd"/>
</clipPath>
<clipPath id="clip_13">
<path transform="matrix(1,0,0,-1,0,841.92)" d="M.000008871 0H595.32V841.92H.000008871Z" clip-rule="evenodd"/>
</clipPath>
<clipPath id="clip_14">
<path transform="matrix(1,0,0,-1,0,841.92)" d="M.000008871 0H595.32V841.92H.000008871Z" clip-rule="evenodd"/>
</clipPath>
<clipPath id="clip_15">
<path transform="matrix(1,0,0,-1,0,841.92)" d="M.000008871 0H595.32V841.92H.000008871Z" clip-rule="evenodd"/>
</clipPath>
<clipPath id="clip_16">
<path transform="matrix(1,0,0,-1,0,841.92)" d="M.000008871 0H595.32V841.92H.000008871Z" clip-rule="evenodd"/>
</clipPath>
<clipPath id="clip_17">
<path transform="matrix(1,0,0,-1,0,841.92)" d="M.000008871 0H595.32V841.92H.000008871Z" clip-rule="evenodd"/>
</clipPath>
<clipPath id="clip_18">
<path transform="matrix(1,0,0,-1,0,841.92)" d="M.000008871 0H595.32V841.92H.000008871Z" clip-rule="evenodd"/>
</clipPath>
<clipPath id="clip_19">
<path transform="matrix(1,0,0,-1,0,841.92)" d="M.000008871 0H595.32V841.92H.000008871Z" clip-rule="evenodd"/>
</clipPath>
<clipPath id="clip_20">
<path transform="matrix(1,0,0,-1,0,841.92)" d="M.000008871 0H595.32V841.92H.000008871Z" clip-rule="evenodd"/>
</clipPath>
<clipPath id="clip_21">
<path transform="matrix(1,0,0,-1,0,841.92)" d="M.000008871 0H595.32V841.92H.000008871Z" clip-rule="evenodd"/>
</clipPath>
<clipPath id="clip_22">
<path transform="matrix(1,0,0,-1,0,841.92)" d="M.000008871 0H595.32V841.92H.000008871Z" clip-rule="evenodd"/>
</clipPath>
<clipPath id="clip_23">
<path transform="matrix(1,0,0,-1,0,841.92)" d="M.000008871 0H595.32V841.92H.000008871Z" clip-rule="evenodd"/>
</clipPath>
<clipPath id="clip_24">
<path transform="matrix(1,0,0,-1,0,841.92)" d="M.000008871 0H595.32V841.92H.000008871Z" clip-rule="evenodd"/>
</clipPath>
<clipPath id="clip_25">
<path transform="matrix(1,0,0,-1,0,841.92)" d="M.000008871 0H595.32V841.92H.000008871Z" clip-rule="evenodd"/>
</clipPath>
<clipPath id="clip_26">
<path transform="matrix(1,0,0,-1,0,841.92)" d="M.000008871 0H595.32V841.92H.000008871Z" clip-rule="evenodd"/>
</clipPath>
<clipPath id="clip_27">
<path transform="matrix(1,0,0,-1,0,841.92)" d="M.000008871 0H595.32V841.92H.000008871Z" clip-rule="evenodd"/>
</clipPath>
<clipPath id="clip_28">
<path transform="matrix(1,0,0,-1,0,841.92)" d="M.000008871 0H595.32V841.92H.000008871Z" clip-rule="evenodd"/>
</clipPath>
<clipPath id="clip_29">
<path transform="matrix(1,0,0,-1,0,841.92)" d="M.000008871 0H595.32V841.92H.000008871Z" clip-rule="evenodd"/>
</clipPath>
<clipPath id="clip_30">
<path transform="matrix(1,0,0,-1,0,841.92)" d="M.000008871 0H595.32V841.92H.000008871Z" clip-rule="evenodd"/>
</clipPath>
<clipPath id="clip_31">
<path transform="matrix(1,0,0,-1,0,841.92)" d="M.000008871 0H595.32V841.92H.000008871Z" clip-rule="evenodd"/>
</clipPath>
<clipPath id="clip_32">
<path transform="matrix(1,0,0,-1,0,841.92)" d="M.000008871 0H595.32V841.92H.000008871Z" clip-rule="evenodd"/>
</clipPath>
<clipPath id="clip_33">
<path transform="matrix(1,0,0,-1,0,841.92)" d="M.000008871 0H595.32V841.92H.000008871Z" clip-rule="evenodd"/>
</clipPath>
<clipPath id="clip_34">
<path transform="matrix(1,0,0,-1,0,841.92)" d="M.000008871 0H595.32V841.92H.000008871Z" clip-rule="evenodd"/>
</clipPath>
<clipPath id="clip_35">
<path transform="matrix(1,0,0,-1,0,841.92)" d="M.000008871 0H595.32V841.92H.000008871Z" clip-rule="evenodd"/>
</clipPath>
<clipPath id="clip_36">
<path transform="matrix(1,0,0,-1,0,841.92)" d="M.000008871 0H595.32V841.92H.000008871Z" clip-rule="evenodd"/>
</clipPath>
<clipPath id="clip_37">
<path transform="matrix(1,0,0,-1,0,841.92)" d="M36 676.18H297.41V693.82H36Z" clip-rule="evenodd"/>
</clipPath>
<clipPath id="clip_38">
<path transform="matrix(1,0,0,-1,0,841.92)" d="M36 676.18H297.41V693.82H36Z" clip-rule="evenodd"/>
</clipPath>
<clipPath id="clip_39">
<path transform="matrix(1,0,0,-1,0,841.92)" d="M297.41 676.18H558.94V693.82H297.41Z" clip-rule="evenodd"/>
</clipPath>
<clipPath id="clip_40">
<path transform="matrix(1,0,0,-1,0,841.92)" d="M297.41 676.18H558.94V693.82H297.41Z" clip-rule="evenodd"/>
</clipPath>
<clipPath id="clip_41">
<path transform="matrix(1,0,0,-1,0,841.92)" d="M.000008871 0H595.32V841.92H.000008871Z" clip-rule="evenodd"/>
</clipPath>
<clipPath id="clip_42">
<path transform="matrix(1,0,0,-1,0,841.92)" d="M.000008871 0H595.32V841.92H.000008871Z" clip-rule="evenodd"/>
</clipPath>
<clipPath id="clip_43">
<path transform="matrix(1,0,0,-1,0,841.92)" d="M36 640.9H558.94V658.54006H36Z" clip-rule="evenodd"/>
</clipPath>
<clipPath id="clip_44">
<path transform="matrix(1,0,0,-1,0,841.92)" d="M36 640.9H558.94V658.54006H36Z" clip-rule="evenodd"/>
</clipPath>
<clipPath id="clip_45">
<path transform="matrix(1,0,0,-1,0,841.92)" d="M.000008871 0H595.32V841.92H.000008871Z" clip-rule="evenodd"/>
</clipPath>
<clipPath id="clip_46">
<path transform="matrix(1,0,0,-1,0,841.92)" d="M.000008871 0H595.32V841.92H.000008871Z" clip-rule="evenodd"/>
</clipPath>
<clipPath id="clip_47">
<path transform="matrix(1,0,0,-1,0,841.92)" d="M.000008871 0H595.32V841.92H.000008871Z" clip-rule="evenodd"/>
</clipPath>
<clipPath id="clip_48">
<path transform="matrix(1,0,0,-1,0,841.92)" d="M.000008871 0H595.32V841.92H.000008871Z" clip-rule="evenodd"/>
</clipPath>
<clipPath id="clip_49">
<path transform="matrix(1,0,0,-1,0,841.92)" d="M.000008871 0H595.32V841.92H.000008871Z" clip-rule="evenodd"/>
</clipPath>
<clipPath id="clip_50">
<path transform="matrix(1,0,0,-1,0,841.92)" d="M.000008871 0H595.32V841.92H.000008871Z" clip-rule="evenodd"/>
</clipPath>
<clipPath id="clip_51">
<path transform="matrix(1,0,0,-1,0,841.92)" d="M.000008871 0H595.32V841.92H.000008871Z" clip-rule="evenodd"/>
</clipPath>
<clipPath id="clip_52">
<path transform="matrix(1,0,0,-1,0,841.92)" d="M55.56 722.74H244.25V740.38H55.56Z" clip-rule="evenodd"/>
</clipPath>
<clipPath id="clip_53">
<path transform="matrix(1,0,0,-1,0,841.92)" d="M55.56 722.74H244.25V740.38H55.56Z" clip-rule="evenodd"/>
</clipPath>
<clipPath id="clip_54">
<path transform="matrix(1,0,0,-1,0,841.92)" d="M43.68 722.98H246.65V807.24398H43.68Z" clip-rule="evenodd"/>
</clipPath>
<clipPath id="clip_55">
<path transform="matrix(1,0,0,-1,0,841.92)" d="M43.68 722.98H246.65V807.24398H43.68Z" clip-rule="evenodd"/>
</clipPath>
<clipPath id="clip_56">
<path transform="matrix(1,0,0,-1,0,841.92)" d="M43.68 722.98H246.65V807.24398H43.68Z" clip-rule="evenodd"/>
</clipPath>
<clipPath id="clip_57">
<path transform="matrix(1,0,0,-1,0,841.92)" d="M43.68 722.98H246.65V807.24398H43.68Z" clip-rule="evenodd"/>
</clipPath>
<clipPath id="clip_58">
<path transform="matrix(1,0,0,-1,0,841.92)" d="M43.68 722.98H246.65V807.24398H43.68Z" clip-rule="evenodd"/>
</clipPath>
<clipPath id="clip_59">
<path transform="matrix(1,0,0,-1,0,841.92)" d="M39.84 716.02H253.48999V747.58H39.84Z" clip-rule="evenodd"/>
</clipPath>
<clipPath id="clip_60">
<path transform="matrix(1,0,0,-1,0,841.92)" d="M39.84 716.02H253.48999V747.58H39.84Z" clip-rule="evenodd"/>
</clipPath>
<clipPath id="clip_61">
<path transform="matrix(1,0,0,-1,0,841.92)" d="M39.84 716.02H253.48999V747.58H39.84Z" clip-rule="evenodd"/>
</clipPath>
<clipPath id="clip_62">
<path transform="matrix(1,0,0,-1,0,841.92)" d="M39.84 716.02H253.48999V747.58H39.84Z" clip-rule="evenodd"/>
</clipPath>
</defs>
<g>
<path transform="matrix(1,0,0,-1,0,841.92)" d="M53.027 200.47C52.748 201.46 52.468 202.34 52.188 203.09 51.945 203.82 51.673 204.46 51.415 205.01 51.128 205.55 50.878 206.01 50.642 206.37 50.377 206.73 50.135 207.04 49.877 207.3 49.45 207.73 49.008 207.91 48.552 207.8 48.125 207.68 47.647 207.35 47.087 206.79 46.373 207.51 45.659 208.22 44.945 208.94 47.404 211.39 49.862 213.85 52.32 216.31 53.034 215.6 53.748 214.88 54.462 214.17 54.087 213.79 53.807 213.32 53.704 212.75 53.572 212.16 53.535 211.48 53.609 210.72 53.69 209.94 53.829 209.06 54.05 208.1 54.293 207.13 54.558 206.02 54.889 204.82 56.155 200.39 57.296 195.92 58.563 191.49 65.997 188.67 73.497 186.01 80.923 183.19 82.925 182.42 84.596 182.03 85.884 181.94 87.18 181.79 88.144 182.05 88.762 182.67 88.784 182.69 88.806 182.71 88.828 182.73 89.557 182 90.286 181.27 91.014 180.55 90.897 180.43 90.772 180.3 90.654 180.19 89.535 179.07 88.549 178.23 87.702 177.65 86.856 177.05 86.002 176.7 85.156 176.57 84.309 176.45 83.404 176.5 82.44 176.76 81.483 176.98 80.32 177.33 78.973 177.88 72.783 180.3 66.534 182.59 60.344 185.01 60.624 182.88 60.83 180.73 61.102 178.59 63.781 175.91 66.468 173.22 69.147 170.54 69.964 169.73 70.715 169.15 71.333 168.81 71.966 168.48 72.548 168.29 73.048 168.28 73.571 168.24 74.027 168.34 74.439 168.61 74.866 168.87 75.256 169.16 75.632 169.54 75.779 169.68 75.926 169.83 76.073 169.98 76.802 169.25 77.531 168.52 78.259 167.79 75.021 164.55 71.79 161.32 68.559 158.09 67.83 158.82 67.101 159.55 66.373 160.28 66.512 160.42 66.652 160.56 66.792 160.7 67.167 161.07 67.462 161.47 67.719 161.89 67.97 162.29 68.11 162.73 68.124 163.21 68.139 163.68 68.006 164.25 67.661 164.88 67.344 165.49 66.799 166.16 66.041 166.92 57.429 175.53 48.825 184.14 40.213 192.75 39.455 193.51 38.778 194.05 38.145 194.39 37.549 194.71 36.975 194.84 36.474 194.86 35.974 194.87 35.503 194.75 35.098 194.51 34.686 194.25 34.318 193.92 33.942 193.55 33.802 193.41 33.663 193.27 33.523 193.13 32.787 193.86 32.058 194.59 31.329 195.32 34.56 198.55 37.791 201.78 41.03 205.02 41.759 204.29 42.487 203.56 43.223 202.83 43.076 202.68 42.929 202.53 42.782 202.39 42.406 202.01 42.112 201.63 41.847 201.2 41.582 200.79 41.479 200.33 41.494 199.83 41.531 199.31 41.715 198.73 42.053 198.09 42.399 197.47 42.966 196.73 43.783 195.91 48.692 191 53.594 186.1 58.504 181.19 56.627 187.6 54.912 194.05 53.027 200.47Z" fill="#c0c0c0" fill-opacity=".50196" fill-rule="evenodd"/>
<path transform="matrix(1,0,0,-1,0,841.92)" d="M106.08 195.61C105.35 196.34 104.62 197.07 103.89 197.8 104.04 197.95 104.19 198.09 104.34 198.24 104.71 198.62 105.01 199.02 105.28 199.45 105.53 199.84 105.65 200.32 105.61 200.84 105.59 201.34 105.41 201.92 105.07 202.55 104.73 203.17 104.14 203.9 103.32 204.72 99.242 208.79 95.172 212.87 91.094 216.94 87.481 213.33 83.874 209.72 80.26 206.11 84.338 202.03 88.408 197.96 92.486 193.88 93.303 193.07 94.047 192.48 94.672 192.15 95.298 191.81 95.887 191.63 96.38 191.61 96.902 191.57 97.359 191.67 97.778 191.95 98.198 192.2 98.588 192.49 98.963 192.87 99.11 193.01 99.258 193.16 99.405 193.31 100.13 192.58 100.86 191.85 101.59 191.12 98.36 187.89 95.129 184.66 91.89 181.42 91.162 182.15 90.433 182.88 89.704 183.61 89.844 183.75 89.991 183.9 90.131 184.03 90.506 184.41 90.808 184.82 91.073 185.24 91.323 185.64 91.441 186.11 91.404 186.63 91.39 187.13 91.206 187.71 90.86 188.34 90.528 188.97 89.932 189.7 89.115 190.51 80.592 199.04 72.068 207.56 63.545 216.08 62.787 216.84 62.11 217.39 61.477 217.72 60.88 218.04 60.306 218.17 59.813 218.19 59.313 218.21 58.842 218.09 58.429 217.84 58.017 217.58 57.657 217.26 57.281 216.88 57.141 216.74 56.994 216.6 56.854 216.46 56.118 217.19 55.39 217.92 54.661 218.65 57.899 221.89 61.13 225.12 64.361 228.35 65.09 227.62 65.819 226.89 66.555 226.16 66.408 226.01 66.261 225.86 66.113 225.72 65.738 225.34 65.444 224.96 65.186 224.54 64.914 224.12 64.811 223.66 64.825 223.16 64.87 222.65 65.046 222.06 65.392 221.43 65.731 220.8 66.305 220.06 67.122 219.25 70.64 215.73 74.151 212.22 77.662 208.71 81.276 212.32 84.882 215.93 88.496 219.54 84.985 223.05 81.474 226.56 77.956 230.08 77.139 230.9 76.418 231.49 75.792 231.83 75.159 232.17 74.577 232.36 74.055 232.39 73.554 232.41 73.083 232.29 72.686 232.04 72.259 231.77 71.862 231.47 71.486 231.09 71.339 230.94 71.192 230.8 71.045 230.65 70.309 231.38 69.58 232.11 68.851 232.84 72.082 236.07 75.321 239.31 78.552 242.54 79.28 241.81 80.009 241.08 80.745 240.35 80.605 240.21 80.458 240.06 80.318 239.92 79.943 239.55 79.634 239.15 79.391 238.74 79.119 238.32 79.001 237.85 79.016 237.35 79.052 236.83 79.236 236.25 79.582 235.62 79.921 234.99 80.51 234.27 81.327 233.45 89.865 224.91 98.403 216.38 106.95 207.83 107.71 207.07 108.4 206.54 109.01 206.23 109.64 205.88 110.19 205.73 110.66 205.74 111.13 205.75 111.58 205.89 112 206.17 112.4 206.41 112.79 206.7 113.17 207.07 113.31 207.21 113.46 207.36 113.6 207.5 114.32 206.77 115.05 206.04 115.78 205.31 112.55 202.08 109.31 198.84 106.08 195.61Z" fill="#c0c0c0" fill-opacity=".50196" fill-rule="evenodd"/>
<path transform="matrix(1,0,0,-1,0,841.92)" d="M122.24 216.97C124.39 219.11 126.53 221.26 128.68 223.4 129.21 223.93 129.54 224.52 129.68 225.12 129.82 225.73 129.84 226.35 129.69 226.97 129.55 227.59 129.29 228.25 128.9 228.93 128.54 229.58 128.11 230.21 127.57 230.85 126.89 231.68 126.22 232.49 125.56 233.32 126.14 233.89 126.72 234.47 127.3 235.06 130.26 231.95 133.22 228.83 136.18 225.72 130.23 219.76 124.27 213.81 118.32 207.85 117.59 208.58 116.86 209.31 116.13 210.04 116.27 210.18 116.41 210.32 116.55 210.46 116.93 210.83 117.22 211.23 117.48 211.65 117.73 212.05 117.87 212.5 117.89 212.97 117.9 213.44 117.76 214.01 117.42 214.64 117.1 215.24 116.56 215.93 115.8 216.68 107.26 225.23 98.719 233.77 90.181 242.31 89.364 243.12 88.635 243.7 88.01 244.05 87.377 244.39 86.795 244.57 86.273 244.61 85.772 244.63 85.301 244.51 84.904 244.26 84.484 244 84.079 243.68 83.704 243.31 83.564 243.17 83.424 243.03 83.284 242.89 82.548 243.62 81.82 244.35 81.091 245.08 86.685 250.68 92.286 256.28 97.879 261.87 100.98 258.89 104.07 255.9 107.16 252.91 106.59 252.34 106.01 251.76 105.44 251.19 104.64 251.89 103.83 252.57 103.03 253.27 102.4 253.8 101.78 254.26 101.13 254.69 100.49 255.06 99.852 255.33 99.249 255.5 98.623 255.64 97.997 255.67 97.423 255.55 96.834 255.44 96.312 255.11 95.811 254.61 93.942 252.74 92.08 250.87 90.21 249 94.833 244.38 99.463 239.75 104.08 235.13 106.76 237.81 109.44 240.49 112.12 243.17 112.98 242.31 113.82 241.47 114.67 240.62 111.99 237.94 109.31 235.26 106.63 232.58 111.84 227.38 117.04 222.18 122.24 216.97Z" fill="#c0c0c0" fill-opacity=".50196" fill-rule="evenodd"/>
<path transform="matrix(1,0,0,-1,0,841.92)" d="M143.74 245.14C144.56 244.32 145.3 243.74 145.93 243.41 146.55 243.06 147.14 242.89 147.64 242.87 148.16 242.83 148.61 242.93 149.03 243.2 149.45 243.46 149.85 243.75 150.22 244.12 150.48 244.38 150.73 244.64 150.98 244.89 151.71 244.16 152.44 243.43 153.17 242.7 149.72 239.25 146.26 235.79 142.81 232.34 142.08 233.07 141.35 233.8 140.62 234.53 140.88 234.78 141.13 235.03 141.39 235.29 141.76 235.67 142.05 236.06 142.31 236.48 142.56 236.88 142.7 237.33 142.72 237.8 142.73 238.27 142.59 238.84 142.26 239.47 141.93 240.07 141.39 240.75 140.63 241.51 130.97 251.17 121.32 260.82 111.67 270.47 110.61 269.41 109.55 268.34 108.49 267.28 108 266.79 107.68 266.29 107.59 265.73 107.48 265.16 107.55 264.56 107.73 263.97 107.9 263.38 108.19 262.76 108.6 262.16 109.02 261.5 109.49 260.9 110.03 260.27 110.72 259.46 111.4 258.65 112.09 257.84 111.52 257.27 110.94 256.7 110.37 256.12 107.38 259.21 104.4 262.31 101.41 265.4 107.67 271.66 113.92 277.91 120.17 284.16 123.26 281.18 126.36 278.19 129.45 275.21 128.88 274.63 128.31 274.06 127.73 273.48 126.93 274.18 126.13 274.87 125.33 275.57 124.69 276.1 124.09 276.57 123.44 276.99 122.82 277.39 122.21 277.69 121.62 277.87 121.03 278.04 120.43 278.11 119.86 278 119.29 277.89 118.78 277.58 118.28 277.08 117.2 275.99 116.13 274.92 115.04 273.84 124.61 264.27 134.17 254.71 143.74 245.14Z" fill="#c0c0c0" fill-opacity=".50196" fill-rule="evenodd"/>
<path transform="matrix(1,0,0,-1,0,841.92)" d="M152.51 266.95C153.93 264.72 155.31 262.45 156.73 260.21 157.04 259.7 157.36 259.21 157.7 258.78 158.05 258.33 158.38 257.94 158.66 257.66 159.55 256.77 160.37 256.32 161.15 256.27 161.91 256.22 162.67 256.58 163.42 257.32 163.67 257.58 163.93 257.83 164.18 258.09 164.91 257.36 165.64 256.63 166.37 255.9 163.66 253.19 160.94 250.47 158.23 247.77 157.51 248.49 156.78 249.22 156.05 249.95 156.26 250.17 156.47 250.37 156.68 250.59 157.01 250.91 157.23 251.24 157.33 251.6 157.45 251.93 157.47 252.34 157.34 252.83 157.21 253.31 156.99 253.9 156.63 254.61 156.25 255.31 155.78 256.16 155.14 257.2 147.22 269.95 139.49 282.81 131.57 295.56 132.44 296.43 133.3 297.29 134.16 298.16 147.4 289.85 160.74 281.73 173.96 273.43 174.63 273.02 175.22 272.7 175.72 272.48 176.21 272.26 176.65 272.14 177.03 272.11 177.44 272.06 177.81 272.13 178.13 272.3 178.45 272.46 178.78 272.68 179.11 273.01 179.25 273.16 179.39 273.3 179.54 273.45 180.27 272.72 181 271.99 181.73 271.26 178.67 268.21 175.63 265.16 172.57 262.1 171.84 262.83 171.11 263.56 170.39 264.29 170.64 264.54 170.89 264.8 171.15 265.06 172.48 266.39 172.3 267.9 170.64 269.55 170.36 269.83 170.05 270.12 169.69 270.38 169.34 270.63 168.91 270.91 168.44 271.21 166.06 272.72 163.66 274.2 161.27 275.71 158.35 272.79 155.44 269.88 152.51 266.95ZM146.86 284.78C144.98 286 143.19 287.11 141.57 288.19 139.93 289.26 138.38 290.29 136.95 291.38 137.51 290.66 138.01 289.99 138.5 289.3 138.98 288.6 139.47 287.87 139.97 287.15 140.47 286.43 140.95 285.64 141.47 284.83 142.02 284 142.57 283.08 143.2 282.07 145.65 278.13 148.07 274.15 150.53 270.21 153.04 272.72 155.54 275.22 158.05 277.73 154.33 280.09 150.59 282.41 146.86 284.78Z" fill="#c0c0c0" fill-opacity=".50196" fill-rule="evenodd"/>
<path transform="matrix(1,0,0,-1,0,841.92)" d="M200.69 290.22C186.55 296.17 172.28 301.82 158.14 307.77 166.18 299.73 174.22 291.69 182.26 283.65 183.07 282.84 183.82 282.26 184.44 281.92 185.08 281.59 185.66 281.4 186.16 281.39 186.67 281.34 187.13 281.45 187.55 281.72 187.97 281.98 188.37 282.27 188.73 282.64 188.88 282.79 189.03 282.93 189.18 283.08 189.9 282.35 190.63 281.62 191.36 280.89 188.57 278.1 185.79 275.32 183 272.53 182.27 273.26 181.54 273.99 180.82 274.72 180.95 274.86 181.09 275 181.23 275.14 181.61 275.51 181.92 275.93 182.18 276.35 182.43 276.74 182.55 277.22 182.51 277.74 182.49 278.24 182.31 278.82 181.97 279.45 181.63 280.07 181.04 280.81 180.23 281.62 171.7 290.15 163.18 298.67 154.66 307.19 153.9 307.95 153.21 308.49 152.59 308.83 151.98 309.14 151.42 309.28 150.92 309.3 150.42 309.31 149.95 309.2 149.54 308.95 149.13 308.69 148.76 308.36 148.38 307.99 148.24 307.85 148.11 307.71 147.97 307.57 147.23 308.3 146.5 309.03 145.77 309.76 147.8 311.79 149.84 313.83 151.87 315.86 165.42 310.14 179.08 304.69 192.62 298.96 184.92 306.66 177.22 314.36 169.52 322.06 168.77 322.82 168.09 323.36 167.46 323.71 166.86 324.02 166.29 324.16 165.79 324.17 165.29 324.19 164.82 324.07 164.42 323.83 164 323.56 163.63 323.24 163.26 322.86 163.11 322.72 162.97 322.57 162.82 322.42 162.08 323.16 161.35 323.89 160.62 324.61 163.41 327.4 166.2 330.19 168.99 332.98 169.72 332.25 170.45 331.53 171.19 330.79 171.05 330.65 170.9 330.5 170.76 330.36 170.38 329.99 170.08 329.59 169.82 329.18 169.56 328.77 169.44 328.29 169.46 327.79 169.49 327.27 169.68 326.69 170.02 326.06 170.36 325.43 170.95 324.71 171.77 323.89 182.2 313.46 192.64 303.03 203.06 292.6 202.27 291.8 201.48 291.01 200.69 290.22Z" fill="#c0c0c0" fill-opacity=".50196" fill-rule="evenodd"/>
<path transform="matrix(1,0,0,-1,0,841.92)" d="M208.43 297.96C207.7 298.69 206.97 299.42 206.24 300.15 206.39 300.3 206.53 300.44 206.67 300.58 207.05 300.95 207.35 301.36 207.61 301.78 207.86 302.18 207.98 302.65 207.94 303.17 207.93 303.67 207.75 304.26 207.41 304.89 207.07 305.51 206.47 306.24 205.66 307.05 197.2 315.51 188.75 323.96 180.29 332.42 179.47 333.23 178.75 333.82 178.13 334.17 177.49 334.51 176.91 334.69 176.39 334.73 175.89 334.74 175.42 334.62 175.02 334.37 174.59 334.11 174.2 333.8 173.82 333.42 173.68 333.29 173.54 333.15 173.39 333 172.66 333.73 171.93 334.46 171.2 335.19 174.44 338.43 177.67 341.66 180.9 344.89 181.63 344.16 182.36 343.43 183.1 342.7 182.95 342.55 182.8 342.4 182.65 342.26 182.28 341.88 181.98 341.5 181.73 341.08 181.45 340.66 181.35 340.2 181.37 339.7 181.41 339.19 181.59 338.6 181.93 337.97 182.27 337.34 182.84 336.6 183.66 335.79 192.12 327.33 200.57 318.88 209.03 310.42 209.84 309.61 210.59 309.02 211.21 308.69 211.84 308.35 212.43 308.17 212.92 308.15 213.44 308.11 213.9 308.21 214.32 308.49 214.74 308.74 215.13 309.03 215.5 309.41 215.65 309.55 215.8 309.7 215.94 309.85 216.67 309.12 217.4 308.39 218.13 307.66 214.9 304.43 211.67 301.2 208.43 297.96Z" fill="#c0c0c0" fill-opacity=".50196" fill-rule="evenodd"/>
<path transform="matrix(1,0,0,-1,0,841.92)" d="M202.89 367.95C204.03 369.09 205.17 369.94 206.29 370.49 207.43 371.01 208.54 371.32 209.65 371.34 210.73 371.35 211.77 371.18 212.76 370.74 213.74 370.3 214.64 369.67 215.48 368.83 216.04 368.27 216.48 367.69 216.77 367.11 217.09 366.51 217.25 365.91 217.3 365.35 217.37 364.76 217.29 364.22 217.13 363.7 216.95 363.16 216.64 362.7 216.23 362.29 215.41 363.11 214.53 363.84 213.61 364.51 212.68 365.16 211.73 365.68 210.78 366.01 209.83 366.35 208.92 366.44 208.02 366.36 207.14 366.24 206.33 365.83 205.6 365.1 204.35 363.85 203.62 362.42 203.46 360.83 203.34 359.21 203.63 357.45 204.48 355.53 205.34 353.58 206.62 351.46 208.38 349.2 210.18 346.92 212.37 344.47 214.99 341.85 217.31 339.53 219.58 337.54 221.77 335.85 223.97 334.17 226.04 332.94 227.97 332.12 229.94 331.27 231.73 330.95 233.37 331.05 234.99 331.13 236.44 331.83 237.66 333.05 238.47 333.86 239.07 334.7 239.44 335.59 239.83 336.44 240.06 337.32 240.12 338.2 240.17 339.08 240.13 340 239.96 340.9 239.78 341.79 239.58 342.65 239.26 343.51 239.62 343.51 240.04 343.43 240.48 343.21 240.93 342.98 241.4 342.65 241.93 342.11 242.6 341.45 243.11 340.64 243.52 339.68 243.93 338.7 244.1 337.63 244.09 336.48 244.08 335.33 243.77 334.12 243.24 332.87 242.74 331.59 241.82 330.34 240.59 329.1 238.93 327.45 237.02 326.42 234.84 326.11 232.67 325.79 230.3 325.99 227.79 326.84 225.26 327.68 222.59 329.02 219.79 330.97 216.99 332.9 214.17 335.28 211.29 338.16 208.47 340.98 206.13 343.79 204.23 346.58 202.34 349.37 201.05 352.08 200.24 354.66 199.43 357.22 199.28 359.63 199.66 361.91 200.02 364.19 201.13 366.19 202.89 367.95Z" fill="#c0c0c0" fill-opacity=".50196" fill-rule="evenodd"/>
<path transform="matrix(1,0,0,-1,0,841.92)" d="M253.71 348.44C255.85 350.58 257.99 352.72 260.14 354.86 260.67 355.4 261 355.98 261.15 356.59 261.28 357.19 261.3 357.81 261.16 358.43 261.01 359.05 260.76 359.71 260.36 360.39 260 361.05 259.58 361.68 259.03 362.31 258.35 363.14 257.69 363.96 257.02 364.78 257.6 365.36 258.18 365.94 258.77 366.52 261.72 363.41 264.68 360.3 267.65 357.18 261.69 351.22 255.73 345.27 249.78 339.31 249.05 340.04 248.32 340.77 247.59 341.5 247.73 341.64 247.87 341.78 248.02 341.92 248.39 342.29 248.68 342.69 248.94 343.11 249.19 343.51 249.34 343.96 249.35 344.43 249.36 344.9 249.23 345.47 248.88 346.1 248.56 346.71 248.02 347.39 247.26 348.14 238.72 356.69 230.18 365.23 221.64 373.77 220.82 374.58 220.1 375.17 219.47 375.51 218.84 375.86 218.25 376.03 217.74 376.08 217.24 376.09 216.77 375.97 216.36 375.72 215.94 375.46 215.54 375.14 215.17 374.77 215.02 374.63 214.88 374.49 214.74 374.35 214.01 375.08 213.28 375.81 212.55 376.54 218.15 382.14 223.74 387.74 229.35 393.34 232.44 390.35 235.54 387.37 238.63 384.38 238.05 383.8 237.48 383.23 236.9 382.65 236.1 383.35 235.3 384.04 234.49 384.73 233.87 385.27 233.24 385.72 232.59 386.15 231.96 386.53 231.32 386.8 230.71 386.95 230.09 387.1 229.46 387.13 228.89 387.02 228.29 386.9 227.78 386.57 227.27 386.06 225.41 384.2 223.54 382.33 221.68 380.47 226.3 375.85 230.93 371.22 235.55 366.6 238.23 369.28 240.91 371.95 243.59 374.63 244.44 373.78 245.29 372.93 246.14 372.09 243.46 369.41 240.78 366.73 238.1 364.05 243.3 358.85 248.51 353.64 253.71 348.44Z" fill="#c0c0c0" fill-opacity=".50196" fill-rule="evenodd"/>
<path transform="matrix(1,0,0,-1,0,841.92)" d="M290.39 379.92C289.66 380.65 288.94 381.38 288.21 382.11 288.25 382.15 288.29 382.19 288.32 382.23 288.68 382.58 288.96 382.96 289.16 383.33 289.37 383.69 289.47 384.09 289.44 384.52 289.41 384.94 289.24 385.44 288.92 385.99 288.6 386.53 288.13 387.18 287.43 387.91 278.14 397.19 268.86 406.48 259.57 415.77 268.19 402.15 276.64 388.42 285.27 374.8 284.67 374.2 284.06 373.59 283.47 373 269.85 381.55 256.12 389.94 242.5 398.5 251.6 389.4 260.7 380.29 269.8 371.2 270.62 370.38 271.33 369.77 271.92 369.4 272.52 369.03 273.07 368.81 273.54 368.77 274.02 368.69 274.45 368.77 274.83 369 275.2 369.21 275.58 369.49 275.96 369.86 275.99 369.89 276.02 369.92 276.06 369.96 276.78 369.23 277.51 368.5 278.24 367.77 275.67 365.2 273.11 362.64 270.54 360.07 269.81 360.8 269.09 361.53 268.36 362.26 268.5 362.4 268.64 362.54 268.78 362.69 269.15 363.06 269.45 363.45 269.7 363.87 269.95 364.27 270.1 364.73 270.11 365.19 270.12 365.66 269.99 366.23 269.64 366.86 269.33 367.47 268.78 368.15 268.02 368.91 259.41 377.52 250.81 386.12 242.2 394.73 241.44 395.49 240.76 396.04 240.13 396.38 239.53 396.69 238.96 396.82 238.46 396.84 237.96 396.86 237.49 396.74 237.08 396.49 236.67 396.23 236.3 395.9 235.93 395.54 235.79 395.39 235.65 395.25 235.51 395.11 234.77 395.85 234.04 396.57 233.31 397.3 235.84 399.84 238.38 402.37 240.92 404.91 253.12 397.21 265.43 389.67 277.63 381.99 269.92 394.17 262.36 406.45 254.65 418.64 257.11 421.1 259.57 423.56 262.03 426.02 262.76 425.29 263.49 424.57 264.23 423.83 264.09 423.69 263.95 423.55 263.81 423.41 263.43 423.03 263.11 422.63 262.87 422.22 262.61 421.81 262.49 421.34 262.5 420.84 262.54 420.32 262.72 419.74 263.06 419.1 263.41 418.48 263.99 417.75 264.81 416.93 273.26 408.48 281.71 400.03 290.17 391.57 290.99 390.75 291.72 390.16 292.34 389.82 292.98 389.49 293.56 389.3 294.06 389.29 294.57 389.24 295.05 389.37 295.46 389.63 295.87 389.88 296.28 390.18 296.66 390.56 296.8 390.7 296.94 390.84 297.08 390.98 297.8 390.25 298.53 389.52 299.26 388.79 296.31 385.84 293.35 382.88 290.39 379.92Z" fill="#c0c0c0" fill-opacity=".50196" fill-rule="evenodd"/>
<path transform="matrix(1,0,0,-1,0,841.92)" d="M305.73 400.46C307.87 402.6 310.01 404.74 312.16 406.88 312.69 407.42 313.02 408 313.17 408.61 313.3 409.21 313.32 409.83 313.18 410.45 313.03 411.07 312.78 411.74 312.38 412.41 312.02 413.07 311.6 413.7 311.05 414.33 310.38 415.16 309.71 415.98 309.04 416.8 309.62 417.38 310.21 417.96 310.79 418.54 313.75 415.44 316.7 412.32 319.67 409.2 313.71 403.24 307.76 397.29 301.8 391.33 301.07 392.06 300.34 392.79 299.61 393.52 299.75 393.66 299.89 393.8 300.04 393.95 300.41 394.31 300.7 394.71 300.96 395.13 301.22 395.54 301.36 395.98 301.37 396.46 301.38 396.92 301.25 397.49 300.9 398.12 300.59 398.73 300.04 399.41 299.28 400.17 290.74 408.71 282.2 417.25 273.66 425.79 272.84 426.6 272.12 427.19 271.49 427.53 270.86 427.88 270.28 428.06 269.76 428.1 269.26 428.11 268.79 428 268.39 427.74 267.96 427.48 267.56 427.16 267.19 426.8 267.04 426.65 266.9 426.51 266.76 426.37 266.03 427.1 265.3 427.83 264.57 428.56 270.17 434.16 275.77 439.76 281.37 445.36 284.46 442.37 287.56 439.39 290.65 436.4 290.07 435.83 289.5 435.25 288.93 434.68 288.12 435.37 287.32 436.06 286.51 436.75 285.89 437.29 285.26 437.74 284.61 438.17 283.98 438.55 283.34 438.82 282.73 438.98 282.11 439.12 281.48 439.15 280.91 439.04 280.32 438.92 279.8 438.59 279.29 438.09 277.43 436.22 275.56 434.35 273.7 432.49 278.32 427.87 282.95 423.24 287.57 418.62 290.25 421.3 292.93 423.98 295.61 426.65 296.46 425.8 297.31 424.95 298.16 424.11 295.48 421.43 292.8 418.75 290.12 416.07 295.32 410.87 300.53 405.66 305.73 400.46Z" fill="#c0c0c0" fill-opacity=".50196" fill-rule="evenodd"/>
<path transform="matrix(1,0,0,-1,0,841.92)" d="M340.25 429.78C326.11 435.74 311.85 441.39 297.71 447.33 305.74 439.29 313.78 431.25 321.82 423.22 322.64 422.4 323.39 421.83 324.01 421.49 324.64 421.15 325.22 420.96 325.72 420.95 326.24 420.91 326.7 421.02 327.11 421.28 327.54 421.55 327.93 421.83 328.3 422.21 328.45 422.36 328.6 422.5 328.75 422.65 329.47 421.92 330.2 421.19 330.93 420.46 328.14 417.67 325.35 414.88 322.56 412.1 321.84 412.82 321.11 413.55 320.38 414.28 320.52 414.42 320.66 414.57 320.8 414.71 321.18 415.08 321.48 415.49 321.75 415.92 322 416.31 322.11 416.78 322.08 417.31 322.06 417.81 321.88 418.39 321.53 419.01 321.2 419.64 320.61 420.37 319.79 421.19 311.27 429.71 302.74 438.23 294.22 446.76 293.46 447.51 292.78 448.06 292.15 448.4 291.55 448.71 290.98 448.85 290.49 448.87 289.99 448.88 289.52 448.77 289.1 448.52 288.69 448.25 288.33 447.93 287.95 447.56 287.81 447.42 287.67 447.27 287.53 447.13 286.79 447.87 286.06 448.6 285.33 449.32 287.37 451.36 289.4 453.39 291.44 455.43 304.98 449.7 318.65 444.26 332.19 438.53 324.49 446.23 316.79 453.93 309.09 461.63 308.34 462.39 307.66 462.93 307.02 463.27 306.43 463.59 305.85 463.72 305.35 463.74 304.85 463.75 304.38 463.63 303.98 463.39 303.57 463.12 303.2 462.8 302.82 462.43 302.67 462.28 302.54 462.14 302.39 461.99 301.65 462.73 300.92 463.46 300.19 464.18 302.98 466.97 305.77 469.76 308.56 472.55 309.28 471.82 310.01 471.09 310.75 470.35 310.61 470.21 310.47 470.07 310.33 469.93 309.95 469.56 309.64 469.15 309.39 468.75 309.12 468.33 309 467.86 309.02 467.36 309.06 466.84 309.24 466.25 309.59 465.63 309.92 464.99 310.51 464.27 311.33 463.46 321.76 453.03 332.2 442.59 342.63 432.16 341.84 431.37 341.05 430.58 340.25 429.78Z" fill="#c0c0c0" fill-opacity=".50196" fill-rule="evenodd"/>
<path transform="matrix(1,0,0,-1,0,841.92)" d="M352.66 454.06C353.48 453.24 354.22 452.66 354.85 452.33 355.47 451.98 356.06 451.8 356.56 451.79 357.08 451.74 357.53 451.85 357.95 452.12 358.37 452.38 358.77 452.67 359.14 453.04 359.39 453.3 359.65 453.56 359.9 453.81 360.63 453.08 361.36 452.35 362.09 451.62 358.64 448.17 355.18 444.71 351.72 441.26 351 441.98 350.27 442.71 349.54 443.44 349.8 443.7 350.05 443.95 350.3 444.21 350.68 444.58 350.97 444.97 351.23 445.4 351.48 445.8 351.62 446.25 351.64 446.72 351.65 447.19 351.51 447.76 351.17 448.39 350.85 448.99 350.3 449.67 349.55 450.43 339.89 460.08 330.24 469.73 320.59 479.38 319.53 478.32 318.46 477.26 317.4 476.2 316.92 475.71 316.6 475.2 316.51 474.64 316.4 474.08 316.47 473.48 316.64 472.89 316.81 472.3 317.11 471.68 317.52 471.07 317.94 470.42 318.41 469.82 318.95 469.19 319.64 468.38 320.32 467.57 321.01 466.76 320.44 466.19 319.86 465.61 319.29 465.04 316.3 468.13 313.32 471.23 310.33 474.32 316.59 480.58 322.83 486.82 329.09 493.08 332.18 490.09 335.28 487.11 338.37 484.12 337.8 483.55 337.22 482.97 336.65 482.4 335.85 483.1 335.05 483.78 334.24 484.48 333.61 485.01 333.01 485.48 332.36 485.91 331.74 486.31 331.13 486.61 330.54 486.79 329.94 486.96 329.35 487.02 328.78 486.91 328.21 486.81 327.7 486.49 327.2 485.99 326.12 484.91 325.04 483.84 323.96 482.75 333.53 473.19 343.09 463.62 352.66 454.06Z" fill="#c0c0c0" fill-opacity=".50196" fill-rule="evenodd"/>
<path transform="matrix(1,0,0,-1,0,841.92)" d="M377.08 466.61C376.35 467.34 375.62 468.07 374.89 468.8 375.03 468.94 375.17 469.08 375.31 469.22 375.69 469.59 376 470.01 376.26 470.42 376.51 470.82 376.62 471.29 376.59 471.82 376.57 472.32 376.39 472.9 376.05 473.53 375.71 474.15 375.11 474.88 374.3 475.69 365.77 484.22 357.25 492.74 348.73 501.26 347.97 502.02 347.29 502.57 346.67 502.91 346.06 503.22 345.5 503.36 345 503.38 344.5 503.39 344.02 503.27 343.62 503.03 343.2 502.76 342.84 502.44 342.46 502.07 342.32 501.93 342.18 501.79 342.04 501.65 341.31 502.38 340.58 503.11 339.85 503.84 342.96 506.95 346.08 510.08 349.21 513.2 350.6 514.59 352.08 515.57 353.58 516.1 355.13 516.6 356.71 516.78 358.3 516.49 359.91 516.21 361.57 515.58 363.26 514.56 364.93 513.53 366.6 512.2 368.31 510.49 369.86 508.94 371.18 507.31 372.3 505.58 373.43 503.86 374.14 502.07 374.54 500.29 374.96 498.5 374.89 496.67 374.4 494.89 373.94 493.09 372.86 491.36 371.21 489.72 370.51 489.02 369.82 488.32 369.12 487.62 372.05 484.68 374.99 481.74 377.93 478.81 378.68 478.05 379.38 477.52 379.99 477.2 380.62 476.86 381.17 476.71 381.64 476.72 382.11 476.73 382.56 476.88 382.98 477.14 383.38 477.39 383.78 477.68 384.15 478.05 384.52 478.42 384.89 478.79 385.26 479.16 385.99 478.43 386.71 477.7 387.44 476.97 383.98 473.52 380.53 470.06 377.08 466.61ZM366.64 490.09C367.23 490.68 367.83 491.28 368.42 491.87 369.42 492.87 370.12 493.92 370.5 494.96 370.87 496.01 370.94 497.13 370.65 498.32 370.35 499.51 369.77 500.8 368.8 502.18 367.87 503.54 366.56 505.04 364.91 506.7 363.46 508.15 362.09 509.32 360.82 510.24 359.57 511.13 358.37 511.7 357.24 512.02 356.13 512.33 355.06 512.32 354.05 512.03 353.05 511.69 352.08 511.08 351.13 510.13 350.38 509.38 349.62 508.62 348.87 507.87 354.79 501.94 360.72 496.02 366.64 490.09Z" fill="#c0c0c0" fill-opacity=".50196" fill-rule="evenodd"/>
<path transform="matrix(1,0,0,-1,0,841.92)" d="M408.04 510.3C410 509.46 411.59 508.97 412.81 508.81 414.04 508.65 415.01 508.92 415.72 509.62 415.75 509.65 415.78 509.68 415.82 509.72 416.55 508.99 417.27 508.26 418 507.53 417.84 507.37 417.69 507.22 417.53 507.06 416.49 506.02 415.59 505.22 414.8 504.69 414 504.15 413.2 503.8 412.39 503.66 411.6 503.53 410.72 503.61 409.79 503.9 408.83 504.18 407.68 504.59 406.31 505.22 400.93 507.67 395.47 510 390.08 512.45 389.15 511.52 388.23 510.6 387.31 509.68 390.89 506.11 394.47 502.52 398.06 498.94 398.81 498.18 399.51 497.65 400.12 497.33 400.74 496.99 401.3 496.84 401.77 496.85 402.24 496.86 402.69 497 403.11 497.27 403.51 497.52 403.9 497.8 404.28 498.18 404.42 498.33 404.57 498.47 404.72 498.62 405.45 497.89 406.17 497.16 406.9 496.44 403.67 493.2 400.44 489.97 397.2 486.73 396.47 487.46 395.75 488.19 395.02 488.92 395.16 489.06 395.3 489.21 395.44 489.35 395.82 489.72 396.11 490.11 396.37 490.54 396.62 490.94 396.76 491.39 396.78 491.86 396.79 492.33 396.65 492.9 396.3 493.52 395.99 494.13 395.44 494.81 394.69 495.57 386.07 504.18 377.47 512.78 368.86 521.39 368.1 522.15 367.42 522.7 366.79 523.04 366.19 523.35 365.63 523.49 365.13 523.51 364.63 523.52 364.15 523.4 363.75 523.16 363.33 522.89 362.97 522.57 362.59 522.2 362.45 522.06 362.31 521.91 362.17 521.77 361.43 522.51 360.7 523.24 359.97 523.96 362.96 526.95 365.95 529.94 368.95 532.94 371.82 535.81 374.81 537.15 377.88 536.88 380.97 536.59 384.2 534.79 387.56 531.43 388.96 530.03 390 528.69 390.78 527.37 391.53 526.04 392.06 524.74 392.37 523.5 392.67 522.27 392.76 521.11 392.7 520.02 392.63 518.92 392.43 517.93 392.16 517.04 397.44 514.75 402.77 512.58 408.04 510.3ZM384.86 512.14C385.64 512.92 386.42 513.7 387.2 514.48 388.18 515.45 388.83 516.44 389.14 517.43 389.45 518.41 389.48 519.44 389.17 520.51 388.86 521.59 388.31 522.71 387.47 523.9 386.61 525.09 385.5 526.36 384.14 527.72 382.75 529.12 381.47 530.18 380.31 531.01 379.16 531.8 378.06 532.27 377.02 532.5 376 532.72 375.01 532.63 374.07 532.26 373.13 531.88 372.2 531.2 371.26 530.26 370.51 529.51 369.75 528.75 369 528 374.29 522.7 379.57 517.42 384.86 512.14Z" fill="#c0c0c0" fill-opacity=".50196" fill-rule="evenodd"/>
<path transform="matrix(1,0,0,-1,0,841.92)" d="M421.95 548.82C424.83 545.94 427.19 543.11 429.12 540.29 431.04 537.47 432.35 534.78 433.16 532.21 433.96 529.64 434.13 527.25 433.76 525.03 433.41 522.81 432.34 520.86 430.66 519.18 428.89 517.4 426.91 516.31 424.66 515.93 422.43 515.56 420.03 515.72 417.5 516.56 414.97 517.4 412.26 518.75 409.46 520.69 406.66 522.63 403.82 525.03 400.94 527.91 398.06 530.79 395.66 533.63 393.73 536.43 391.81 539.2 390.49 541.88 389.67 544.39 388.85 546.9 388.71 549.31 389.09 551.55 389.49 553.77 390.6 555.77 392.37 557.54 394.04 559.21 396 560.27 398.18 560.64 400.39 560.99 402.78 560.82 405.33 560.04 407.9 559.24 410.58 557.92 413.38 556.02 416.2 554.1 419.05 551.72 421.95 548.82ZM404.69 531.55C407.26 528.97 409.71 526.8 411.97 525.02 414.25 523.23 416.35 521.93 418.28 521.05 420.21 520.18 422 519.85 423.6 519.97 425.21 520.07 426.63 520.74 427.86 521.97 429.1 523.21 429.79 524.65 429.9 526.26 430.01 527.86 429.67 529.64 428.79 531.56 427.92 533.49 426.61 535.58 424.8 537.86 423.03 540.12 420.84 542.55 418.26 545.12 415.69 547.69 413.25 549.89 410.97 551.69 408.73 553.46 406.64 554.77 404.7 555.65 402.77 556.53 401.02 556.84 399.43 556.75 397.83 556.64 396.44 555.94 395.21 554.71 393.97 553.47 393.25 552.06 393.14 550.46 393.04 548.86 393.33 547.09 394.21 545.15 395.07 543.21 396.37 541.11 398.14 538.85 399.93 536.57 402.12 534.12 404.69 531.55Z" fill="#c0c0c0" fill-opacity=".50196" fill-rule="evenodd"/>
<path transform="matrix(1,0,0,-1,0,841.92)" d="M446.18 573.05C449.04 570.19 451.37 567.39 453.21 564.65 455.08 561.88 456.33 559.22 457.07 556.73 457.82 554.21 457.89 551.82 457.42 549.6 456.98 547.35 455.8 545.34 453.99 543.53 450.59 540.12 447.19 536.72 443.79 533.32 443.06 534.05 442.33 534.78 441.61 535.51 441.75 535.65 441.89 535.79 442.03 535.93 442.4 536.3 442.71 536.72 442.97 537.14 443.23 537.54 443.34 538.01 443.31 538.54 443.28 539.03 443.11 539.62 442.76 540.24 442.43 540.87 441.83 541.6 441.02 542.41 432.49 550.94 423.97 559.46 415.45 567.98 414.69 568.74 414.01 569.29 413.38 569.63 412.78 569.94 412.21 570.07 411.71 570.09 411.21 570.11 410.74 569.99 410.33 569.74 409.92 569.48 409.55 569.15 409.18 568.78 409.04 568.64 408.9 568.5 408.76 568.36 408.02 569.1 407.29 569.82 406.56 570.55 409.96 573.95 413.36 577.35 416.76 580.75 418.47 582.46 420.41 583.6 422.58 584.13 424.77 584.61 427.11 584.6 429.61 583.93 432.11 583.25 434.76 582.04 437.56 580.2 440.35 578.36 443.23 576 446.18 573.05ZM450.56 545.39C451.88 546.71 452.71 548.24 452.98 549.94 453.26 551.63 453.07 553.49 452.37 555.5 451.67 557.51 450.5 559.69 448.86 562.01 447.18 564.32 445.06 566.78 442.49 569.35 437.32 574.52 432.69 577.81 428.65 579.25 424.62 580.69 421.25 580.05 418.61 577.41 417.64 576.43 416.66 575.46 415.69 574.48 426.35 563.83 437.01 553.16 447.67 542.5 448.64 543.47 449.6 544.43 450.56 545.39Z" fill="#c0c0c0" fill-opacity=".50196" fill-rule="evenodd"/>
<path transform="matrix(1,0,0,-1,0,841.92)" d="M479.32 567.84C478 566.52 476.63 565.53 475.12 564.97 473.64 564.37 472.08 564.15 470.43 564.39 468.76 564.62 467 565.23 465.12 566.37 463.27 567.48 461.27 569.09 459.16 571.2 452.41 577.95 445.66 584.7 438.91 591.45 438.15 592.21 437.48 592.75 436.84 593.09 436.25 593.41 435.67 593.54 435.17 593.55 434.68 593.58 434.2 593.45 433.8 593.21 433.38 592.94 433.02 592.62 432.64 592.24 432.5 592.1 432.36 591.96 432.22 591.82 431.48 592.56 430.76 593.29 430.03 594.02 433.26 597.25 436.49 600.48 439.73 603.72 440.46 602.99 441.19 602.26 441.92 601.52 441.77 601.38 441.63 601.23 441.48 601.08 441.1 600.71 440.81 600.32 440.54 599.9 440.28 599.49 440.18 599.03 440.19 598.53 440.23 598.01 440.41 597.43 440.76 596.8 441.1 596.17 441.67 595.43 442.49 594.61 449.27 587.83 456.05 581.05 462.83 574.27 464.34 572.76 465.78 571.61 467.1 570.84 468.44 570.04 469.68 569.57 470.86 569.4 472 569.21 473.07 569.33 474.06 569.71 475.04 570.06 475.93 570.66 476.75 571.48 477.71 572.44 478.36 573.49 478.64 574.59 478.93 575.7 478.95 576.83 478.68 578.04 478.41 579.21 477.91 580.42 477.13 581.64 476.35 582.84 475.4 584.02 474.2 585.22 467.28 592.14 460.36 599.06 453.44 605.98 452.68 606.74 452 607.28 451.37 607.62 450.78 607.94 450.2 608.07 449.71 608.09 449.21 608.1 448.74 607.99 448.32 607.74 447.91 607.47 447.55 607.16 447.18 606.78 447.04 606.64 446.89 606.49 446.75 606.35 446.01 607.09 445.28 607.82 444.56 608.55 447.35 611.34 450.13 614.13 452.92 616.91 453.65 616.19 454.38 615.46 455.12 614.72 454.97 614.57 454.82 614.43 454.68 614.28 454.3 613.9 454.01 613.52 453.74 613.09 453.48 612.68 453.37 612.23 453.39 611.73 453.42 611.2 453.61 610.62 453.95 609.99 454.29 609.36 454.87 608.63 455.68 607.81 462.57 600.93 469.46 594.04 476.34 587.16 478.07 585.43 479.43 583.68 480.47 581.97 481.53 580.22 482.15 578.52 482.43 576.9 482.71 575.23 482.57 573.65 482.06 572.11 481.57 570.57 480.64 569.15 479.32 567.84Z" fill="#c0c0c0" fill-opacity=".50196" fill-rule="evenodd"/>
<path transform="matrix(1,0,0,-1,0,841.92)" d="M465.47 630.53C466.61 631.67 467.75 632.52 468.88 633.08 470.01 633.59 471.12 633.9 472.23 633.92 473.31 633.93 474.35 633.76 475.34 633.32 476.32 632.88 477.22 632.25 478.06 631.41 478.62 630.85 479.06 630.27 479.35 629.7 479.67 629.09 479.83 628.5 479.88 627.93 479.96 627.34 479.87 626.8 479.71 626.28 479.53 625.74 479.22 625.28 478.81 624.87 477.99 625.69 477.12 626.43 476.19 627.09 475.26 627.74 474.31 628.26 473.36 628.6 472.41 628.93 471.5 629.01 470.6 628.94 469.72 628.82 468.92 628.42 468.18 627.68 466.93 626.43 466.19 625 466.05 623.41 465.92 621.79 466.22 620.04 467.06 618.11 467.92 616.16 469.2 614.04 470.96 611.78 472.77 609.51 474.95 607.06 477.57 604.44 479.89 602.12 482.16 600.12 484.36 598.43 486.55 596.75 488.62 595.52 490.56 594.71 492.52 593.86 494.31 593.53 495.96 593.63 497.58 593.72 499.02 594.41 500.24 595.63 501.05 596.44 501.65 597.28 502.02 598.17 502.41 599.02 502.64 599.9 502.7 600.79 502.75 601.66 502.71 602.58 502.54 603.48 502.36 604.37 502.17 605.24 501.85 606.1 502.21 606.09 502.62 606.01 503.06 605.78 503.51 605.57 503.98 605.23 504.52 604.7 505.18 604.03 505.69 603.22 506.1 602.26 506.51 601.28 506.68 600.21 506.67 599.06 506.66 597.91 506.35 596.71 505.82 595.45 505.32 594.17 504.41 592.93 503.17 591.69 501.51 590.03 499.6 589 497.42 588.69 495.25 588.37 492.88 588.57 490.37 589.42 487.83 590.26 485.18 591.61 482.37 593.55 479.58 595.49 476.76 597.87 473.88 600.74 471.05 603.57 468.72 606.37 466.82 609.17 464.92 611.95 463.63 614.66 462.82 617.24 462.01 619.81 461.86 622.21 462.23 624.49 462.6 626.77 463.71 628.77 465.47 630.53Z" fill="#c0c0c0" fill-opacity=".50196" fill-rule="evenodd"/>
<path transform="matrix(1,0,0,-1,0,841.92)" d="M517.03 618.42C517.84 617.6 518.59 617.02 519.21 616.69 519.84 616.35 520.42 616.16 520.92 616.15 521.44 616.11 521.9 616.21 522.31 616.48 522.74 616.74 523.13 617.03 523.5 617.41 523.76 617.66 524.01 617.91 524.27 618.17 525 617.44 525.73 616.71 526.45 615.99 523 612.53 519.54 609.07 516.09 605.62 515.36 606.35 514.63 607.08 513.9 607.81 514.15 608.06 514.41 608.32 514.67 608.57 515.05 608.95 515.33 609.34 515.59 609.76 515.85 610.16 515.99 610.61 516 611.08 516.01 611.55 515.88 612.12 515.53 612.75 515.21 613.36 514.67 614.04 513.91 614.79 504.25 624.45 494.61 634.1 484.96 643.75 483.9 642.69 482.83 641.62 481.77 640.56 481.28 640.07 480.97 639.57 480.88 639.01 480.77 638.44 480.83 637.85 481 637.25 481.18 636.66 481.47 636.04 481.88 635.43 482.31 634.78 482.78 634.18 483.31 633.55 484 632.74 484.68 631.94 485.38 631.13 484.8 630.55 484.23 629.98 483.65 629.4 480.66 632.5 477.68 635.59 474.7 638.69 480.94 644.93 487.2 651.19 493.46 657.45 496.55 654.46 499.65 651.48 502.74 648.49 502.16 647.92 501.59 647.34 501.02 646.77 500.21 647.46 499.41 648.15 498.61 648.85 497.98 649.38 497.37 649.85 496.72 650.28 496.1 650.67 495.5 650.98 494.9 651.15 494.31 651.32 493.71 651.39 493.15 651.28 492.57 651.18 492.07 650.86 491.57 650.36 490.48 649.28 489.4 648.2 488.33 647.12 497.9 637.55 507.46 627.99 517.03 618.42Z" fill="#c0c0c0" fill-opacity=".50196" fill-rule="evenodd"/>
<path transform="matrix(1,0,0,-1,0,841.92)" d="M540.25 628.77C539.16 627.68 538.05 626.91 536.86 626.44 535.67 625.98 534.47 625.77 533.27 625.86 532.07 625.94 530.88 626.27 529.69 626.91 528.52 627.53 527.38 628.37 526.28 629.46 525.24 630.51 524.6 631.59 524.38 632.65 524.13 633.69 524.41 634.63 525.17 635.39 526.31 634.33 527.47 633.4 528.64 632.58 529.81 631.77 530.97 631.14 532.08 630.73 533.2 630.32 534.27 630.18 535.29 630.26 536.29 630.35 537.19 630.8 537.97 631.58 539.47 633.08 540.1 634.81 539.78 636.79 539.47 638.75 538.28 640.8 536.17 642.91 535.23 643.85 534.31 644.61 533.39 645.18 532.47 645.74 531.52 646.11 530.49 646.35 529.47 646.56 528.37 646.6 527.12 646.55 525.9 646.46 524.5 646.2 522.89 645.88 521.2 645.53 519.57 645.3 518.05 645.32 516.55 645.31 515.05 645.46 513.61 645.92 512.19 646.34 510.78 646.96 509.38 647.86 508 648.76 506.59 649.9 505.17 651.33 503.67 652.83 502.52 654.34 501.72 655.88 500.9 657.41 500.44 658.91 500.26 660.38 500.1 661.81 500.29 663.19 500.74 664.52 501.18 665.85 501.95 667.02 503.01 668.08 504 669.06 505.04 669.81 506.15 670.24 507.25 670.67 508.32 670.9 509.4 670.89 510.47 670.88 511.51 670.67 512.48 670.25 513.46 669.81 514.33 669.21 515.1 668.44 516.21 667.32 516.83 666.26 516.92 665.22 517.05 664.17 516.66 663.24 515.86 662.44 515.05 663.25 514.17 664 513.27 664.67 512.35 665.34 511.44 665.81 510.52 666.16 509.62 666.49 508.71 666.58 507.86 666.51 507.01 666.42 506.2 666.01 505.51 665.31 504.87 664.68 504.42 663.99 504.2 663.2 503.99 662.41 503.94 661.57 504.11 660.71 504.31 659.84 504.64 658.96 505.2 658.04 505.76 657.12 506.48 656.2 507.37 655.31 508.41 654.27 509.39 653.46 510.36 652.85 511.31 652.24 512.33 651.82 513.37 651.59 514.41 651.34 515.54 651.29 516.77 651.38 518.03 651.44 519.42 651.71 520.99 652.04 522.61 652.36 524.15 652.6 525.6 652.67 527.06 652.73 528.48 652.6 529.85 652.29 531.25 651.95 532.64 651.4 533.95 650.63 535.3 649.83 536.65 648.79 537.99 647.44 539.65 645.79 540.89 644.13 541.83 642.46 542.75 640.77 543.29 639.1 543.49 637.49 543.68 635.89 543.47 634.34 542.93 632.87 542.42 631.38 541.51 630.03 540.25 628.77Z" fill="#c0c0c0" fill-opacity=".50196" fill-rule="evenodd"/>
<g clip-path="url(#clip_1)">
<text xml:space="preserve" transform="matrix(1 0 -0 1 0 841.92)" font-size="11.04" font-family="Calibri"><tspan y="-796.08" x="36"> </tspan></text>
</g>
<g clip-path="url(#clip_2)">
</g>
<g clip-path="url(#clip_3)">
<text xml:space="preserve" transform="matrix(1 0 -0 1 0 841.92)" font-size="18" font-family="Noto Serif"><tspan y="-773.88" x="36 40.68 45.36 50.04 54.72 59.4 64.08 68.76 73.44 78.12 82.8 87.48 92.16 96.840007 101.520008 106.200008 110.880008 115.560009 120.240009 124.920009 129.6 134.28 138.95999 143.63999 148.31998 152.99997 157.55396 162.23395 166.91394 171.59394 176.27393 180.95392 185.63391 190.3139 194.9939 199.67389 204.35388 209.03388 213.71387 218.39386 223.07386 227.75385 232.43384">                                           </tspan></text>
</g>
<g clip-path="url(#clip_4)">
<text xml:space="preserve" transform="matrix(1 0 -0 1 0 841.92)" font-size="18" font-family="Noto Serif"><tspan y="-773.88" x="237.17 241.85 246.53 251.20999 255.88999 260.56999 265.24998 269.92997">        </tspan></text>
</g>
<g clip-path="url(#clip_5)">
<text xml:space="preserve" transform="matrix(1 0 -0 1 0 841.92)" font-size="18" font-family="Noto Serif" font-weight="bold"><tspan y="-773.88" x="274.49 287.702 302.444 314.198 325.952 339.50599 353.68998">KHETANI</tspan></text>
</g>
<g clip-path="url(#clip_6)">
<text xml:space="preserve" transform="matrix(1 0 -0 1 0 841.92)" font-size="18" font-family="Noto Serif"><tspan y="-773.88" x="360.91"> </tspan></text>
</g>
<g clip-path="url(#clip_7)">
<text xml:space="preserve" transform="matrix(1 0 -0 1 0 841.92)" font-size="18" font-family="Noto Serif" font-weight="bold"><tspan y="-773.88" x="365.59 377.61399 389.36799 406.50398 418.25798 432.44197">CEMENT</tspan></text>
</g>
<g clip-path="url(#clip_8)">
<text xml:space="preserve" transform="matrix(1 0 -0 1 0 841.92)" font-size="18" font-family="Noto Serif"><tspan y="-773.88" x="444.22"> </tspan></text>
</g>
<g clip-path="url(#clip_9)">
<text xml:space="preserve" transform="matrix(1 0 -0 1 0 841.92)" font-size="18" font-family="Noto Serif" font-weight="bold"><tspan y="-773.88" x="448.9 460.384 473.11003 487.27604 501.08204 514.528 526.552 538.306">PRODUCTS</tspan></text>
</g>
<g clip-path="url(#clip_10)">
<text xml:space="preserve" transform="matrix(1 0 -0 1 0 841.92)" font-size="18" font-family="Noto Serif" font-weight="bold"><tspan y="-773.88" x="548.86"> </tspan></text>
</g>
<g clip-path="url(#clip_11)">
<text xml:space="preserve" transform="matrix(1 0 -0 1 0 841.92)" font-size="18" font-family="Noto Serif" font-weight="bold"><tspan y="-758.14" x="36 40.68 45.36 50.04">    </tspan></text>
</g>
<g clip-path="url(#clip_12)">
<text xml:space="preserve" transform="matrix(1 0 -0 1 0 841.92)" font-size="18" font-family="Noto Serif" font-weight="bold"><tspan y="-758.14" x="54.72 59.4 64.08 68.76 73.44 78.12 82.8 87.48 92.16 96.840007 101.520008 106.200008 110.880008 115.560009 120.240009 124.920009 129.6 134.28 138.95999 143.63999 148.31998 152.99997 157.55396 162.23395 166.91394 171.59394 176.27393 180.95392 185.63391 190.3139 194.9939 199.67389 204.35388 209.03388 213.71387 218.39386 223.07386 227.75385 232.43384">                                       </tspan></text>
</g>
<g clip-path="url(#clip_13)">
<text xml:space="preserve" transform="matrix(1 0 -0 1 0 841.92)" font-size="18" font-family="Noto Serif" font-weight="bold"><tspan y="-758.14" x="237.17 241.85 246.53 251.20999 255.88999 260.56999 265.24998">       </tspan></text>
</g>
<g clip-path="url(#clip_14)">
<text xml:space="preserve" transform="matrix(1 0 -0 1 0 841.92)" font-size="18" font-family="Noto Serif" font-weight="bold"><tspan y="-758.14" x="269.93"> </tspan></text>
</g>
<g clip-path="url(#clip_15)">
<text xml:space="preserve" transform="matrix(1 0 -0 1 0 841.92)" font-size="8.04" font-family="Noto Serif"><tspan y="-758.14" x="274.49">N</tspan></text>
</g>
<g clip-path="url(#clip_16)">
<text xml:space="preserve" transform="matrix(1 0 -0 1 0 841.92)" font-size="8.04" font-family="Noto Serif"><tspan y="-758.14" x="280.61 284.44508 286.4792 288.52134">r. H</tspan></text>
</g>
<g clip-path="url(#clip_17)">
<text xml:space="preserve" transform="matrix(1 0 -0 1 0 841.92)" font-size="8.04" font-family="Noto Serif"><tspan y="-758.14" x="294.89 299.44065 304.2405 308.79115 310.83329 316.1075 320.6662 323.18275 325.5867 332.5413 336.97938 341.52198 343.5802 348.51676 352.33576 357.007 360.60893 364.21086 366.7274 371.88908 376.2146 378.2407 380.16224 385.42039 389.64137 394.68244 397.19898 402.36067 407.2972 409.32328 414.5975 418.91499 424.07667 428.6273 433.78096 436.1849 439.05519 441.09733 445.4148 450.45588 455.1271 461.96916 465.80424 470.36289 475.03413 482.59175 484.62586 486.668">apa Railway Crossing, Behind Renault Showroom, J</tspan></text>
</g>
<g clip-path="url(#clip_18)">
<text xml:space="preserve" transform="matrix(1 0 -0 1 0 841.92)" font-size="8.04" font-family="Noto Serif"><tspan y="-758.14" x="489.7 494.1381 501.6957 506.8574 511.40803 515.60488 520.1555 523.9906">amnagar </tspan></text>
</g>
<g clip-path="url(#clip_19)">
<text xml:space="preserve" transform="matrix(1 0 -0 1 0 841.92)" font-size="8.04" font-family="Noto Serif"><tspan y="-758.14" x="526.06">&#x2013;</tspan></text>
</g>
<g clip-path="url(#clip_20)">
<text xml:space="preserve" transform="matrix(1 0 -0 1 0 841.92)" font-size="8.04" font-family="Noto Serif"><tspan y="-758.14" x="530.14"> </tspan></text>
</g>
<g clip-path="url(#clip_21)">
<text xml:space="preserve" transform="matrix(1 0 -0 1 0 841.92)" font-size="8.04" font-family="Noto Serif"><tspan y="-758.14" x="532.18 537.3417 541.89236 544.3043 548.9756 553.5343">Rajkot</tspan></text>
</g>
<g clip-path="url(#clip_22)">
<text xml:space="preserve" transform="matrix(1 0 -0 1 0 841.92)" font-size="8.04" font-family="Noto Serif"><tspan y="-758.14" x="556.3"> </tspan></text>
</g>
<g clip-path="url(#clip_23)">
<text xml:space="preserve" transform="matrix(1 0 -0 1 0 841.92)" font-size="8.04" font-family="Noto Serif"><tspan y="-746.38" x="36 38.04216 40.08432 42.12648 44.2812 46.32336 48.36552 50.52024 52.5624 54.60456 56.75928 58.80144 60.8436 62.88576 65.04048 67.08264 69.1248 71.279529 73.321689 75.363849 77.51857 79.56073 81.60289 83.757617 85.799777 87.841938 89.99666 92.03882 94.08098 96.2357 98.27786 100.32002 102.47475 104.51691 106.55907 108.60123 110.75595 112.79811 114.84027 116.994998 119.037158 121.079319 123.23404 125.2762 127.31836">                                             </tspan></text>
</g>
<g clip-path="url(#clip_24)">
<text xml:space="preserve" transform="matrix(1 0 -0 1 0 841.92)" font-size="8.04" font-family="Noto Serif"><tspan y="-746.38" x="129.5 131.54216 133.58432 135.73903 137.78119 139.82335 141.97806 144.02022 146.06238 148.21709 150.25925 152.3014 154.45612 156.49828 158.65299 160.69515 162.7373 164.77947 166.93418 168.97634 171.0185 173.1732 175.21537 177.25753 179.41223 181.45439 183.49655 185.53871 187.69342 189.73558 191.77774 193.93245 195.97461 198.01677 200.17148 202.21364 204.2558 206.4105 208.45267 210.49483 212.64954 214.6917 216.73386 218.88857 220.93073 222.97289 225.1276 227.16976 229.21192 231.25408 233.40879 235.45095 237.4931 239.64781 241.68997 243.73213 245.88684 247.929 249.97116 252.12587 254.16803 256.21018 258.3649 260.40705 262.4492 264.6039 266.64607 268.6882 270.84294 272.88508">                                                                      </tspan></text>
</g>
<g clip-path="url(#clip_25)">
<text xml:space="preserve" transform="matrix(1 0 -0 1 0 841.92)" font-size="8.04" font-family="Noto Serif"><tspan y="-746.38" x="274.97 281.4422 283.95875 288.28428 293.42988 300.38447 304.82255">Highway</tspan></text>
</g>
<g clip-path="url(#clip_26)">
<text xml:space="preserve" transform="matrix(1 0 -0 1 0 841.92)" font-size="8.04" font-family="Noto Serif"><tspan y="-746.38" x="309.41 311.44413 313.48628 316.244 320.79463 328.35224 333.51393 338.06455 342.26145 346.81208 350.64717 352.68128 354.6028 360.34339 365.51313 367.79649 372.3471 376.0696 380.62025 383.37797">, Jamnagar, Gujarat.</tspan></text>
</g>
<g clip-path="url(#clip_27)">
<text xml:space="preserve" transform="matrix(1 0 -0 1 0 841.92)" font-size="8.04" font-family="Noto Serif"><tspan y="-746.38" x="385.39"> </tspan></text>
</g>
<g clip-path="url(#clip_28)">
<text xml:space="preserve" transform="matrix(1 0 -0 1 0 841.92)" font-size="8.04" font-family="Noto Serif"><tspan y="-732.46" x="36 38.04216 40.08432 42.12648 44.2812 46.32336 48.36552 50.52024 52.5624 54.60456 56.75928 58.80144 60.8436 62.88576 65.04048 67.08264 69.1248 71.279529 73.321689 75.363849 77.51857 79.56073 81.60289 83.757617 85.799777 87.841938 89.99666 92.03882 94.08098 96.2357 98.27786 100.32002 102.47475 104.51691 106.55907 108.60123 110.75595 112.79811 114.84027 116.994998 119.037158 121.079319 123.23404 125.2762 127.31836 129.47307 131.51523 133.55739 135.7121 137.75426 139.79642 141.95113 143.99329 146.03545 148.19016 150.23232 152.27448 154.42919 156.47135 158.62606 160.66822 162.71038 164.75254 166.90724 168.9494 170.99156 173.14627 175.18843 177.23059 179.3853 181.42746 183.46962 185.51178 187.66649 189.70865 191.75081 193.90552 195.94768 197.98984 200.14455 202.1867">                                                                                 </tspan></text>
</g>
<g clip-path="url(#clip_29)">
<text xml:space="preserve" transform="matrix(1 0 -0 1 0 841.92)" font-size="8.04" font-family="Noto Serif"><tspan y="-732.46" x="204.29 206.4447 208.48686 210.52902 212.68373 214.72589 216.76805 218.92276 220.96492 223.00708 225.16179 227.20395 229.24611 231.28827 233.44298 235.48514 237.5273 239.682 241.72417 243.76633 245.92104 247.9632 250.00536 252.16007 254.20223 256.2444 258.3991 260.44126 262.4834 264.63813 266.68028 268.7224 270.87715 272.91929">                                  </tspan></text>
</g>
<g clip-path="url(#clip_30)">
<text xml:space="preserve" transform="matrix(1 0 -0 1 0 841.92)" font-size="9.96" font-family="Noto Serif" font-weight="bold"><tspan y="-732.46" x="275.09 282.74925 288.6356 295.13948 299.07368 306.87236 309.50178 312.5296">GSTIN : </tspan></text>
</g>
<g clip-path="url(#clip_31)">
<text xml:space="preserve" transform="matrix(1 0 -0 1 0 841.92)" font-size="9.96" font-family="Noto Serif" font-weight="bold"><tspan y="-732.46" x="315.31 320.82783 326.34565 333.89533 340.3992 348.168 354.5225 361.83314 367.48045 372.99827 378.62565 384.25303 392.05174 397.6791 404.2826">24AEDPK0520Q1ZM</tspan></text>
</g>
<g clip-path="url(#clip_32)">
<text xml:space="preserve" transform="matrix(1 0 -0 1 0 841.92)" font-size="9.96" font-family="Noto Serif" font-weight="bold"><tspan y="-732.46" x="413.95"> </tspan></text>
</g>
<g clip-path="url(#clip_33)">
<text xml:space="preserve" transform="matrix(1 0 -0 1 0 841.92)" font-size="9.96" font-family="Noto Serif" font-weight="bold"><tspan y="-717.7" x="36 38.62944 41.25888 43.88832 46.4082 49.03764 51.66708 54.18696 56.8164 59.336278 61.965719 64.59516 67.11504 69.744487 72.373928 74.89381 77.52325 80.15269 82.67257 85.30201 87.93145 90.45133 93.08077 95.71021 98.230098 100.859539 103.488979 106.00886 108.6383 111.15818 113.78762 116.41706 118.93694 121.56638 124.19582 126.715709 129.34516 131.9746 134.49448 137.12392 139.75336 142.27324 144.90268 147.53212 150.052 152.68144 155.20133 157.7212 160.35065 162.98009 165.60953 168.12941 170.75885 173.38829 175.90818 178.53762 181.0575 183.68694 186.31638 188.83626 191.4657 194.09514 196.61502 199.24446 201.8739 204.39379 207.02323 209.65267 212.17255 214.80199 217.43143 219.95131 222.58075 225.21019 227.73007 230.35951 232.8794 235.50884 238.13828 240.65816 243.2876 245.91704 248.43692 251.06636 253.6958 256.21568 258.8451 261.47453 263.9944 266.6238 269.25325 271.7731">                                                                                            </tspan></text>
</g>
<g clip-path="url(#clip_34)">
<text xml:space="preserve" transform="matrix(1 0 -0 1 0 841.92)" font-size="9.96" font-family="Noto Serif" font-weight="bold"><tspan y="-717.7" x="274.97 281.5735 289.48176 297.28044 303.7843 311.4336 318.03709 324.54096 327.27 335.06867 342.97694 345.85539 348.8832 351.4728 357.13008 362.6479 368.27528 373.90266 379.42048 382.0499 387.56773 393.1951 398.71293 404.3403 409.85813 412.48756 415.51539 418.10499 423.76225 429.28007 434.90745 440.42527 445.94309 448.69206 454.20988 459.83726 465.35508 470.98246 476.50028">CONTACT NO.: 76218 07404 ; 98243 97944 </tspan></text>
</g>
<g clip-path="url(#clip_35)">
<text xml:space="preserve" transform="matrix(1 0 -0 1 0 841.92)" font-size="9.96" font-family="Noto Serif" font-weight="bold"><tspan y="-717.7" x="479.5"> </tspan></text>
</g>
<g clip-path="url(#clip_36)">
<text xml:space="preserve" transform="matrix(1 0 -0 1 0 841.92)" font-size="9.96" font-family="Noto Serif" font-weight="bold"><tspan y="-703.06" x="36"> </tspan></text>
</g>
<g clip-path="url(#clip_37)">
<g clip-path="url(#clip_38)">
<text xml:space="preserve" transform="matrix(1 0 -0 1 0 841.92)" font-size="12" font-family="Noto Serif" font-weight="bold"><tspan y="-680.98" x="41.4"> </tspan></text>
</g>
</g>
<g clip-path="url(#clip_39)">
<g clip-path="url(#clip_40)">
<text xml:space="preserve" transform="matrix(1 0 -0 1 0 841.92)" font-size="12" font-family="Noto Serif" font-weight="bold"><tspan y="-680.98" x="302.81"> </tspan></text>
</g>
</g>
<path transform="matrix(1,0,0,-1,0,841.92)" d="M36 698.26H297.41V698.98H36Z" fill-rule="evenodd"/>
<path transform="matrix(1,0,0,-1,0,841.92)" d="M36 695.38H297.41V697.54H36Z" fill-rule="evenodd"/>
<path transform="matrix(1,0,0,-1,0,841.92)" d="M36 693.94H297.41V694.66H36Z" fill-rule="evenodd"/>
<path transform="matrix(1,0,0,-1,0,841.92)" d="M297.41 698.26H302.45V698.98H297.41Z" fill-rule="evenodd"/>
<path transform="matrix(1,0,0,-1,0,841.92)" d="M297.41 695.38H302.45V697.54H297.41Z" fill-rule="evenodd"/>
<path transform="matrix(1,0,0,-1,0,841.92)" d="M297.41 693.94H302.45V694.66H297.41Z" fill-rule="evenodd"/>
<path transform="matrix(1,0,0,-1,0,841.92)" d="M302.45 698.26H558.94V698.98H302.45Z" fill-rule="evenodd"/>
<path transform="matrix(1,0,0,-1,0,841.92)" d="M302.45 695.38H558.94V697.54H302.45Z" fill-rule="evenodd"/>
<path transform="matrix(1,0,0,-1,0,841.92)" d="M302.45 693.94H558.94V694.66H302.45Z" fill-rule="evenodd"/>
<g clip-path="url(#clip_41)">
<text fill="#ff0000" xml:space="preserve" transform="matrix(1 0 -0 1 0 841.92)" font-size="12" font-family="Noto Serif"><tspan y="-663.34" x="36 39.12 42.239999 45.359998 48.479997 51.599996 54.719995 57.839994 60.95999 64.079998 67.2 70.32 73.44 76.560009 79.68001 82.80001">                </tspan></text>
</g>
<g clip-path="url(#clip_42)">
<text fill="#ff0000" xml:space="preserve" transform="matrix(1 0 -0 1 0 841.92)" font-size="12" font-family="Noto Serif"><tspan y="-663.34" x="85.944"> </tspan></text>
</g>
<g clip-path="url(#clip_43)">
<g clip-path="url(#clip_44)">
<text xml:space="preserve" transform="matrix(1 0 -0 1 0 841.92)" font-size="12" font-family="Noto Serif" font-weight="bold"><tspan y="-645.7" x="41.4"> </tspan></text>
</g>
</g>
<g clip-path="url(#clip_45)">
<text fill="#ff0000" xml:space="preserve" transform="matrix(1 0 -0 1 0 841.92)" font-size="12" font-family="Noto Serif"><tspan y="-628.06" x="36"> </tspan></text>
</g>
<g clip-path="url(#clip_46)">
<text fill="#ff0000" xml:space="preserve" transform="matrix(1 0 -0 1 0 841.92)" font-size="12" font-family="Noto Serif" font-style="italic"><tspan y="-610.42" x="36"> </tspan></text>
</g>
<g clip-path="url(#clip_47)">
<text xml:space="preserve" transform="matrix(1 0 -0 1 0 841.92)" font-size="12" font-family="Noto Serif" font-style="italic"><tspan y="-610.42" x="39.12"> </tspan></text>
</g>
<g clip-path="url(#clip_48)">
<text xml:space="preserve" transform="matrix(1 0 -0 1 0 841.92)" font-size="12" font-family="Noto Serif"><tspan y="-610.42" x="42.24"> </tspan></text>
</g>
<g clip-path="url(#clip_49)">
<text xml:space="preserve" transform="matrix(1 0 -0 1 0 841.92)" font-size="12" font-family="Noto Serif"><tspan y="-592.66" x="36"> </tspan></text>
</g>
<g clip-path="url(#clip_50)">
<text xml:space="preserve" transform="matrix(1 0 -0 1 0 841.92)" font-size="12" font-family="Noto Serif"><tspan y="-592.66" x="465.46"> </tspan></text>
</g>
<g clip-path="url(#clip_51)">
</g>
<path transform="matrix(1,0,0,-1,0,841.92)" d="M53.15 741.52C53.15 744.26 55.374 746.48 58.117 746.48H241.68C244.43 746.48 246.65 744.26 246.65 741.52V721.65C246.65 718.91 244.43 716.68 241.68 716.68H58.117C55.374 716.68 53.15 718.91 53.15 721.65Z" fill-rule="evenodd"/>
<path transform="matrix(1,0,0,-1,0,841.92)" stroke-width="2" stroke-linecap="butt" stroke-linejoin="round" fill="none" stroke="#000000" d="M53.15 741.52C53.15 744.26 55.374 746.48 58.117 746.48H241.68C244.43 746.48 246.65 744.26 246.65 741.52V721.65C246.65 718.91 244.43 716.68 241.68 716.68H58.117C55.374 716.68 53.15 718.91 53.15 721.65Z"/>
<g clip-path="url(#clip_52)">
<g clip-path="url(#clip_53)">
<text fill="#ffffff" xml:space="preserve" transform="matrix(1 0 -0 1 0 841.92)" font-size="18.96" font-family="Algerian"><tspan y="-719.5" x="149.9"> </tspan></text>
</g>
</g>
<path transform="matrix(1,0,0,-1,0,841.92)" d="M238.65 784.6C238.65 785.34 239.25 785.94 239.99 785.94H245.36C246.1 785.94 246.7 785.34 246.7 784.6V730.63C246.7 729.89 246.1 729.29 245.36 729.29H239.99C239.25 729.29 238.65 729.89 238.65 730.63Z" fill-rule="evenodd"/>
<path transform="matrix(1,0,0,-1,0,841.92)" stroke-width="2" stroke-linecap="butt" stroke-linejoin="round" fill="none" stroke="#000000" d="M238.65 784.6C238.65 785.34 239.25 785.94 239.99 785.94H245.36C246.1 785.94 246.7 785.34 246.7 784.6V730.63C246.7 729.89 246.1 729.29 245.36 729.29H239.99C239.25 729.29 238.65 729.89 238.65 730.63Z"/>
<path transform="matrix(1,0,0,-1,0,841.92)" d="M53.15 784.61C53.15 785.32 53.724 785.89 54.433 785.89H59.567C60.275 785.89 60.85 785.32 60.85 784.61V727.63C60.85 726.92 60.275 726.34 59.567 726.34H54.433C53.724 726.34 53.15 726.92 53.15 727.63Z" fill-rule="evenodd"/>
<path transform="matrix(1,0,0,-1,0,841.92)" stroke-width="2" stroke-linecap="butt" stroke-linejoin="round" fill="none" stroke="#000000" d="M53.15 784.61C53.15 785.32 53.724 785.89 54.433 785.89H59.567C60.275 785.89 60.85 785.32 60.85 784.61V727.63C60.85 726.92 60.275 726.34 59.567 726.34H54.433C53.724 726.34 53.15 726.92 53.15 727.63Z"/>
<g clip-path="url(#clip_54)">
<g clip-path="url(#clip_55)">
<text xml:space="preserve" transform="matrix(1 0 -0 1 0 841.92)" font-size="36" font-family="Footlight MT Light"><tspan y="-755.26" x="65.544"> </tspan></text>
</g>
<g clip-path="url(#clip_56)">
<text xml:space="preserve" transform="matrix(1 0 -0 1 0 841.92)" font-size="36" font-family="Algerian"><tspan y="-755.26" x="74.544 98.916 121.524 143.916 164.76001 192.01201">KHETAN</tspan></text>
</g>
<g clip-path="url(#clip_57)">
<text xml:space="preserve" transform="matrix(1 0 -0 1 0 841.92)" font-size="36" font-family="Algerian"><tspan y="-755.26" x="213.65">I</tspan></text>
</g>
<g clip-path="url(#clip_58)">
<text xml:space="preserve" transform="matrix(1 0 -0 1 0 841.92)" font-size="36" font-family="Algerian"><tspan y="-755.26" x="224.69"> </tspan></text>
</g>
</g>
<g clip-path="url(#clip_59)">
<g clip-path="url(#clip_60)">
<text fill="#ffffff" xml:space="preserve" transform="matrix(1 0 -0 1 0 841.92)" font-size="20.04" font-family="Footlight MT Light"><tspan y="-725.62" x="56.52"> </tspan></text>
</g>
<g clip-path="url(#clip_61)">
<text fill="#ffffff" xml:space="preserve" transform="matrix(1 0 -0 1 0 841.92)" font-size="20.04" font-family="Algerian"><tspan y="-725.62" x="61.584 73.247287 85.712169 100.361408 112.82629 124.710018 136.31317 141.36325 153.12674 165.85214 178.19678 190.30094 202.46521 214.1285 225.73166">CEMENT PRODUCTS</tspan></text>
</g>
<g clip-path="url(#clip_62)">
<text fill="#ffffff" xml:space="preserve" transform="matrix(1 0 -0 1 0 841.92)" font-size="20.04" font-family="Algerian"><tspan y="-725.62" x="236.81"> </tspan></text>
</g>
</g>
<path transform="matrix(1,0,0,-1,0,841.92)" d="M24 813.48H27V817.92H24Z" fill-rule="evenodd"/>
<path transform="matrix(1,0,0,-1,0,841.92)" d="M24 814.92H28.44V817.92H24Z" fill-rule="evenodd"/>
<path transform="matrix(1,0,0,-1,0,841.92)" d="M27 813.48H27.72V814.92H27Z" fill="#ffffff" fill-rule="evenodd"/>
<path transform="matrix(1,0,0,-1,0,841.92)" d="M27 814.2H28.44V814.92H27Z" fill="#ffffff" fill-rule="evenodd"/>
<path transform="matrix(1,0,0,-1,0,841.92)" d="M27.72 813.48H28.439999V814.19998H27.72Z" fill-rule="evenodd"/>
<path transform="matrix(1,0,0,-1,0,841.92)" d="M27.72 813.48H28.439999V814.19998H27.72Z" fill-rule="evenodd"/>
<path transform="matrix(1,0,0,-1,0,841.92)" d="M28.44 814.92H567V817.92H28.44Z" fill-rule="evenodd"/>
<path transform="matrix(1,0,0,-1,0,841.92)" d="M28.44 814.2H567V814.92H28.44Z" fill="#ffffff" fill-rule="evenodd"/>
<path transform="matrix(1,0,0,-1,0,841.92)" d="M28.44 813.48H567V814.19998H28.44Z" fill-rule="evenodd"/>
<path transform="matrix(1,0,0,-1,0,841.92)" d="M568.44 813.48H571.44V817.92H568.44Z" fill-rule="evenodd"/>
<path transform="matrix(1,0,0,-1,0,841.92)" d="M567 814.92H571.44V817.92H567Z" fill-rule="evenodd"/>
<path transform="matrix(1,0,0,-1,0,841.92)" d="M567.72 813.48H568.43997V814.92H567.72Z" fill="#ffffff" fill-rule="evenodd"/>
<path transform="matrix(1,0,0,-1,0,841.92)" d="M567 814.2H568.44V814.92H567Z" fill="#ffffff" fill-rule="evenodd"/>
<path transform="matrix(1,0,0,-1,0,841.92)" d="M567 813.48H567.72006V814.19998H567Z" fill-rule="evenodd"/>
<path transform="matrix(1,0,0,-1,0,841.92)" d="M567 813.48H567.72006V814.19998H567Z" fill-rule="evenodd"/>
<path transform="matrix(1,0,0,-1,0,841.92)" d="M24 28.32H27V813.48H24Z" fill-rule="evenodd"/>
<path transform="matrix(1,0,0,-1,0,841.92)" d="M27 28.32H27.72V813.48H27Z" fill="#ffffff" fill-rule="evenodd"/>
<path transform="matrix(1,0,0,-1,0,841.92)" d="M27.72 28.32H28.439999V813.48H27.72Z" fill-rule="evenodd"/>
<path transform="matrix(1,0,0,-1,0,841.92)" d="M568.44 28.32H571.44V813.48H568.44Z" fill-rule="evenodd"/>
<path transform="matrix(1,0,0,-1,0,841.92)" d="M567.72 28.32H568.43997V813.48H567.72Z" fill="#ffffff" fill-rule="evenodd"/>
<path transform="matrix(1,0,0,-1,0,841.92)" d="M567 28.32H567.72006V813.48H567Z" fill-rule="evenodd"/>
<path transform="matrix(1,0,0,-1,0,841.92)" d="M24 23.88H27V28.319899H24Z" fill-rule="evenodd"/>
<path transform="matrix(1,0,0,-1,0,841.92)" d="M24 23.88H28.44V26.88H24Z" fill-rule="evenodd"/>
<path transform="matrix(1,0,0,-1,0,841.92)" d="M27 26.88H27.72V28.319899H27Z" fill="#ffffff" fill-rule="evenodd"/>
<path transform="matrix(1,0,0,-1,0,841.92)" d="M27 26.88H28.44V27.59997H27Z" fill="#ffffff" fill-rule="evenodd"/>
<path transform="matrix(1,0,0,-1,0,841.92)" d="M27.72 27.6H28.439999V28.319972H27.72Z" fill-rule="evenodd"/>
<path transform="matrix(1,0,0,-1,0,841.92)" d="M27.72 27.6H28.439999V28.319972H27.72Z" fill-rule="evenodd"/>
<path transform="matrix(1,0,0,-1,0,841.92)" d="M28.44 23.88H567V26.88H28.44Z" fill-rule="evenodd"/>
<path transform="matrix(1,0,0,-1,0,841.92)" d="M28.44 26.88H567V27.59997H28.44Z" fill="#ffffff" fill-rule="evenodd"/>
<path transform="matrix(1,0,0,-1,0,841.92)" d="M28.44 27.6H567V28.319972H28.44Z" fill-rule="evenodd"/>
<path transform="matrix(1,0,0,-1,0,841.92)" d="M568.44 23.88H571.44V28.319899H568.44Z" fill-rule="evenodd"/>
<path transform="matrix(1,0,0,-1,0,841.92)" d="M567 23.88H571.44V26.88H567Z" fill-rule="evenodd"/>
<path transform="matrix(1,0,0,-1,0,841.92)" d="M567.72 26.88H568.43997V28.319899H567.72Z" fill="#ffffff" fill-rule="evenodd"/>
<path transform="matrix(1,0,0,-1,0,841.92)" d="M567 26.88H568.44V27.59997H567Z" fill="#ffffff" fill-rule="evenodd"/>
<path transform="matrix(1,0,0,-1,0,841.92)" d="M567 27.6H567.72006V28.319972H567Z" fill-rule="evenodd"/>
<path transform="matrix(1,0,0,-1,0,841.92)" d="M567 27.6H567.72006V28.319972H567Z" fill-rule="evenodd"/>
</g>
</svg>
